<svg xmlns="http://www.w3.org/2000/svg" width="128" height="128"><path fill="#2C3E50" d="M73.2 51.7c-1.3-1.4-4.7-.5-6 .6-1.3 1.1-10.1 7-10.1 7s-6.1-.1-9-.1c-3 0-2.9 2-1.3 2.4 1.6.4 3.5 1.6 3.5 1.6l-6.4 4.4s-3.5-.8-6.9-1.5c-3.4-.7-4 1.2-2.3 2.3 1.7 1.1 9 5.4 9 5.4l9.7-5s.2 2.7.2 4.1c0 1.4 1.5 3.5 2.8 1 1.3-2.5 4.1-9.3 4.1-9.3s9.1-6.9 10.8-8.3c1.6-1.5 3.1-3.1 1.9-4.6zm-3.3 3C68.3 56.1 59.3 63 59.2 63l-.4.3-.2.5c0 .1-1.7 4.2-3.1 7.1-.1-1.2-.2-2.3-.2-2.4l-.3-2.8-11.3 5.8c-1.2-.7-3.4-2-5.2-3.1 2.7.5 4.9 1.1 5 1.1l.9.2 9.6-6.6-2.6-1.6c-.1 0-.2-.1-.5-.3 2.9 0 6.2.1 6.2.1h.6l.5-.4c.9-.6 8.9-6 10.2-7.1.3-.3 1.3-.7 2.3-.8h.8c-.1.3-.5.8-1.6 1.7z"/><path fill="#3B97D3" d="m19.8 18.6 8.4 90.1c.2 2.2 2.2 3.8 4.4 3.6l51-4.7c2.2-.2 3.8-2.2 3.6-4.4l-8.4-90.1c-.2-2.2-2.2-3.8-4.4-3.6l-51 4.7c-2.2.2-3.8 2.2-3.6 4.4zm55-5.2 8.4 90.1-51 4.7-8.4-90.1 51-4.7z"/><circle cx="71.7" cy="40.5" r="3" fill="#3B97D3"/><circle cx="63.8" cy="41.2" r="3" fill="#3B97D3"/><circle cx="55.8" cy="42" r="3" fill="#3B97D3"/><circle cx="47.8" cy="42.7" r="3" fill="#3B97D3"/><circle cx="39.9" cy="43.4" r="3" fill="#3B97D3"/><circle cx="31.9" cy="44.2" r="3" fill="#3B97D3"/><path fill="#3B97D3" d="m72.8 84.3-33.4 3.1c-.5.1-1-.4-1.1-.9-.1-.5.4-1 .9-1.1l33.4-3.1c.5-.1 1 .4 1.1.9 0 .6-.4 1.1-.9 1.1zM73.3 90.3 40 93.4c-.5.1-1-.4-1.1-.9-.1-.5.4-1 .9-1.1l33.4-3.1c.5-.1 1 .4 1.1.9 0 .6-.4 1-1 1.1zM67.5 27.6l-33.4 3.1c-.5.1-1-.4-1.1-.9-.1-.5.4-1 .9-1.1l33.4-3.1c.5-.1 1 .4 1.1.9 0 .5-.4 1-.9 1.1zM73.9 96.3l-33.4 3.1c-.5.1-1-.4-1.1-.9-.1-.5.4-1 .9-1.1l33.4-3.1c.5-.1 1 .4 1.1.9 0 .5-.4 1-.9 1.1z"/><path fill="#3B97D3" d="m98.7 19.1-17.4-.9.4 4 16.9.9-4.8 90.4-32.9-1.8-21 2c.7.6 1.5 1 2.5 1.1l51.2 2.7c2.2.1 4.1-1.6 4.2-3.8l4.8-90.4c0-2.2-1.7-4.1-3.9-4.2z"/></svg>